<?xml version="1.0" standalone="no"?>
<!DOCTYPE svg PUBLIC "-//W3C//DTD SVG 20010904//EN"
 "http://www.w3.org/TR/2001/REC-SVG-20010904/DTD/svg10.dtd">
<svg version="1.0" xmlns="http://www.w3.org/2000/svg"
 width="1024.000000pt" height="1024.000000pt" viewBox="0 0 1024.000000 1024.000000"
 preserveAspectRatio="xMidYMid meet">
<metadata>
Created by potrace 1.11, written by Peter Selinger 2001-2013
</metadata>
<g transform="translate(0.000000,1024.000000) scale(0.100000,-0.100000)"
fill="#000000" stroke="none">
<path d="M4859 10216 c-2 -2 -57 -7 -121 -10 -65 -4 -128 -9 -140 -11 -13 -2
-49 -6 -82 -10 -32 -4 -68 -8 -80 -10 -11 -2 -39 -6 -61 -9 -92 -12 -131 -17
-144 -22 -8 -3 -30 -7 -50 -10 -20 -3 -97 -19 -171 -35 -74 -17 -142 -32 -150
-34 -184 -40 -613 -189 -825 -286 -27 -13 -53 -22 -57 -21 -3 1 -12 -5 -18
-13 -7 -8 -17 -15 -23 -15 -11 0 -197 -93 -287 -142 -68 -38 -351 -209 -365
-220 -5 -5 -44 -32 -85 -60 -41 -29 -79 -56 -85 -60 -5 -5 -39 -30 -75 -56
-36 -26 -71 -53 -78 -60 -8 -7 -30 -25 -50 -40 -21 -15 -39 -29 -42 -32 -3 -3
-32 -27 -65 -55 -142 -119 -397 -369 -515 -505 -40 -47 -76 -87 -79 -90 -4 -3
-40 -48 -81 -100 -41 -52 -80 -101 -87 -108 -7 -7 -13 -16 -13 -20 0 -4 -14
-22 -30 -41 -17 -18 -30 -37 -30 -40 0 -4 -8 -16 -18 -27 -27 -30 -192 -282
-192 -294 0 -5 -4 -10 -10 -10 -5 0 -10 -4 -10 -10 0 -5 -17 -38 -38 -72 -62
-102 -232 -426 -232 -442 0 -3 -13 -33 -29 -68 -117 -251 -290 -777 -318 -963
-2 -16 -8 -43 -13 -60 -5 -16 -12 -47 -16 -69 -3 -21 -8 -48 -10 -60 -2 -11
-9 -50 -15 -86 -9 -59 -13 -82 -24 -160 -2 -14 -6 -54 -10 -90 -4 -36 -8 -76
-10 -90 -27 -163 -27 -768 -1 -1000 3 -19 7 -60 10 -90 14 -124 18 -149 56
-365 53 -298 195 -771 306 -1020 10 -22 18 -42 19 -45 11 -51 226 -473 298
-587 15 -24 27 -45 27 -47 0 -3 17 -31 39 -63 21 -32 52 -80 69 -108 17 -27
35 -54 40 -60 4 -5 18 -26 32 -45 34 -51 191 -261 216 -290 12 -14 50 -59 85
-100 35 -41 78 -90 94 -109 53 -61 360 -365 404 -401 23 -19 59 -50 78 -68 19
-18 51 -45 71 -60 21 -15 42 -32 48 -37 6 -6 47 -37 90 -70 43 -33 81 -62 84
-65 27 -30 362 -246 510 -330 92 -52 404 -210 414 -210 3 0 34 -13 68 -29 129
-58 332 -134 518 -192 205 -65 604 -155 767 -175 13 -1 40 -5 60 -8 21 -3 63
-9 93 -13 72 -10 1097 -10 1175 0 33 4 71 9 85 11 14 3 48 7 75 11 28 3 88 13
135 21 47 9 96 18 110 21 14 2 53 10 86 18 34 8 73 16 85 19 105 19 440 121
629 191 178 66 482 201 520 230 8 7 31 18 50 25 19 8 51 23 70 35 19 12 60 35
90 52 68 37 193 113 280 170 87 57 90 59 187 131 46 34 88 62 93 62 4 0 10 4
12 8 2 4 23 23 48 42 25 19 47 37 50 40 3 3 27 23 55 45 54 44 88 73 141 123
19 17 37 32 39 32 9 0 327 322 390 394 33 38 69 79 80 92 11 12 31 37 45 54
14 18 30 37 36 44 5 6 39 49 74 96 35 47 67 87 70 90 3 3 21 29 40 58 18 28
37 52 42 52 4 0 8 4 8 9 0 5 23 43 51 85 133 200 325 551 413 756 15 36 36 84
46 106 11 23 22 54 26 68 3 14 10 29 15 32 5 3 9 15 9 28 0 12 4 26 9 32 8 7
105 287 117 334 2 8 19 74 39 145 19 72 37 139 39 150 2 11 7 31 10 45 3 14 8
36 11 50 2 14 12 59 20 100 9 41 24 131 35 200 17 114 22 152 35 275 27 256
27 838 0 1006 -2 13 -6 53 -10 89 -4 36 -8 76 -10 90 -2 14 -6 41 -9 60 -11
82 -37 230 -51 290 -8 36 -17 77 -19 91 -2 14 -21 88 -41 165 -20 76 -38 146
-40 154 -11 47 -110 334 -153 441 -47 118 -161 373 -200 446 -9 17 -30 58 -47
90 -16 32 -32 60 -35 63 -3 3 -12 19 -20 35 -8 17 -29 54 -47 83 -18 29 -33
55 -33 58 0 3 -11 20 -25 38 -14 18 -25 38 -25 44 0 7 -4 12 -10 12 -5 0 -10
5 -10 10 0 6 -16 33 -35 60 -19 27 -35 54 -35 59 0 5 -3 11 -8 13 -4 2 -30 35
-57 73 -27 39 -53 72 -57 73 -4 2 -8 8 -8 14 0 5 -6 15 -12 22 -7 7 -22 25
-33 41 -21 29 -152 192 -170 211 -5 6 -32 37 -60 70 -69 80 -377 388 -450 448
-33 28 -67 57 -76 65 -8 9 -30 27 -48 41 -18 14 -38 30 -44 35 -28 24 -75 61
-101 80 -16 11 -33 25 -40 30 -33 29 -155 115 -164 115 -6 0 -12 4 -14 8 -3 9
-129 96 -138 97 -3 0 -18 9 -35 21 -113 79 -475 272 -663 353 -257 112 -564
216 -842 286 -113 28 -353 75 -460 89 -25 3 -63 8 -85 12 -22 3 -51 7 -65 9
-14 2 -59 7 -100 11 -41 3 -88 8 -105 10 -40 6 -641 15 -646 10z"/>
</g>
</svg>
